{
  "accessors": [
    {
      "bufferView": 2,
      "componentType": 5126,
      "count": 37538,
      "max": [
        1.1570080518722534,
        0.23869700729846954,
        1.0215140581130981
      ],
      "min": [
        -1.1138149499893188,
        -0.8276519775390625,
        -1.2526839971542358
      ],
      "type": "VEC3"
    },
    {
      "bufferView": 2,
      "byteOffset": 450456,
      "componentType": 5126,
      "count": 37538,
      "max": [
        0.9997722506523132,
        0.9910443425178528,
        0.9987493753433228
      ],
      "min": [
        -0.9999710917472839,
        -0.9999996423721313,
        -0.9997835159301758
      ],
      "type": "VEC3"
    },
    {
      "bufferView": 1,
      "componentType": 5126,
      "count": 37538,
      "max": [
        2.99918794631958,
        0.9614009857177734
      ],
      "min": [
        2.0006299018859863,
        0.0007489999989047647
      ],
      "type": "VEC2"
    },
    {
      "bufferView": 0,
      "componentType": 5125,
      "count": 112584,
      "type": "SCALAR"
    },
    {
      "bufferView": 2,
      "byteOffset": 900912,
      "componentType": 5126,
      "count": 42039,
      "max": [
        1.1730279922485352,
        0.24922899901866913,
        1.002437949180603
      ],
      "min": [
        -1.1076610088348389,
        -0.9051709771156311,
        -1.252208948135376
      ],
      "type": "VEC3"
    },
    {
      "bufferView": 2,
      "byteOffset": 1405380,
      "componentType": 5126,
      "count": 42039,
      "max": [
        0.999999463558197,
        0.999184250831604,
        0.999946653842926
      ],
      "min": [
        -0.9999905824661255,
        -1.0,
        -0.9999778866767883
      ],
      "type": "VEC3"
    },
    {
      "bufferView": 1,
      "byteOffset": 300304,
      "componentType": 5126,
      "count": 42039,
      "max": [
        1.9993590116500854,
        0.9993460178375244
      ],
      "min": [
        1.0006370544433594,
        0.0006319999811239541
      ],
      "type": "VEC2"
    },
    {
      "bufferView": 0,
      "byteOffset": 450336,
      "componentType": 5125,
      "count": 122736,
      "type": "SCALAR"
    },
    {
      "bufferView": 2,
      "byteOffset": 1909848,
      "componentType": 5126,
      "count": 61573,
      "max": [
        1.150979995727539,
        0.24621300399303436,
        1.018172025680542
      ],
      "min": [
        -1.1031450033187866,
        -0.8949869871139526,
        -1.2524839639663696
      ],
      "type": "VEC3"
    },
    {
      "bufferView": 2,
      "byteOffset": 2648724,
      "componentType": 5126,
      "count": 61573,
      "max": [
        0.9999687075614929,
        0.9987607598304749,
        0.9998566508293152
      ],
      "min": [
        -0.9999633431434631,
        -1.0,
        -0.9999778866767883
      ],
      "type": "VEC3"
    },
    {
      "bufferView": 1,
      "byteOffset": 636616,
      "componentType": 5126,
      "count": 61573,
      "max": [
        4.99933385848999,
        0.9993829727172852
      ],
      "min": [
        4.000615119934082,
        0.0006680000224150717
      ],
      "type": "VEC2"
    },
    {
      "bufferView": 0,
      "byteOffset": 941280,
      "componentType": 5125,
      "count": 175560,
      "type": "SCALAR"
    },
    {
      "bufferView": 2,
      "byteOffset": 3387600,
      "componentType": 5126,
      "count": 65532,
      "max": [
        1.1413559913635254,
        0.24922899901866913,
        1.021994948387146
      ],
      "min": [
        -1.103553056716919,
        -0.9054329991340637,
        -1.2524839639663696
      ],
      "type": "VEC3"
    },
    {
      "bufferView": 2,
      "byteOffset": 4173984,
      "componentType": 5126,
      "count": 65532,
      "max": [
        1.0,
        0.9990054965019226,
        1.0
      ],
      "min": [
        -1.0,
        -1.0,
        -1.0
      ],
      "type": "VEC3"
    },
    {
      "bufferView": 1,
      "byteOffset": 1129200,
      "componentType": 5126,
      "count": 65532,
      "max": [
        0.9992989897727966,
        0.999301016330719
      ],
      "min": [
        0.0006440000142902136,
        0.000699999975040555
      ],
      "type": "VEC2"
    },
    {
      "bufferView": 0,
      "byteOffset": 1643520,
      "componentType": 5125,
      "count": 144429,
      "type": "SCALAR"
    },
    {
      "bufferView": 2,
      "byteOffset": 4960368,
      "componentType": 5126,
      "count": 14885,
      "max": [
        1.1686999797821045,
        0.23775899410247803,
        1.0192430019378662
      ],
      "min": [
        -0.568327009677887,
        -0.41683700680732727,
        -0.9712430238723755
      ],
      "type": "VEC3"
    },
    {
      "bufferView": 2,
      "byteOffset": 5138988,
      "componentType": 5126,
      "count": 14885,
      "max": [
        1.0,
        1.0,
        0.9999974966049194
      ],
      "min": [
        -1.0,
        -1.0,
        -1.0
      ],
      "type": "VEC3"
    },
    {
      "bufferView": 1,
      "byteOffset": 1653456,
      "componentType": 5126,
      "count": 14885,
      "max": [
        0.9986640214920044,
        0.9501839876174927
      ],
      "min": [
        0.020276999101042747,
        0.012879000045359135
      ],
      "type": "VEC2"
    },
    {
      "bufferView": 0,
      "byteOffset": 2221236,
      "componentType": 5125,
      "count": 29529,
      "type": "SCALAR"
    },
    {
      "bufferView": 2,
      "byteOffset": 5317608,
      "componentType": 5126,
      "count": 65532,
      "max": [
        1.1440399885177612,
        0.23824100196361542,
        1.0159469842910767
      ],
      "min": [
        -1.1079139709472656,
        -0.8885149955749512,
        -1.252195954322815
      ],
      "type": "VEC3"
    },
    {
      "bufferView": 2,
      "byteOffset": 6103992,
      "componentType": 5126,
      "count": 65532,
      "max": [
        0.999999463558197,
        0.999755859375,
        0.9998566508293152
      ],
      "min": [
        -0.9999961256980896,
        -1.0,
        -0.9999759793281555
      ],
      "type": "VEC3"
    },
    {
      "bufferView": 1,
      "byteOffset": 1772536,
      "componentType": 5126,
      "count": 65532,
      "max": [
        3.997188091278076,
        0.9993039965629578
      ],
      "min": [
        3.000624895095825,
        0.0006549999816343188
      ],
      "type": "VEC2"
    },
    {
      "bufferView": 0,
      "byteOffset": 2339352,
      "componentType": 5125,
      "count": 194859,
      "type": "SCALAR"
    },
    {
      "bufferView": 2,
      "byteOffset": 6890376,
      "componentType": 5126,
      "count": 3641,
      "max": [
        0.5366449952125549,
        0.24373599886894226,
        0.07282599806785583
      ],
      "min": [
        -0.005197000224143267,
        0.12703199684619904,
        -1.0017999410629272
      ],
      "type": "VEC3"
    },
    {
      "bufferView": 2,
      "byteOffset": 6934068,
      "componentType": 5126,
      "count": 3641,
      "max": [
        0.9976394772529602,
        0.982534646987915,
        0.7291604280471802
      ],
      "min": [
        -0.8556270003318787,
        -1.0,
        -0.9945439100265503
      ],
      "type": "VEC3"
    },
    {
      "bufferView": 1,
      "byteOffset": 2296792,
      "componentType": 5126,
      "count": 3641,
      "max": [
        3.9958839416503906,
        0.786221981048584
      ],
      "min": [
        3.0006399154663086,
        0.028377000242471695
      ],
      "type": "VEC2"
    },
    {
      "bufferView": 0,
      "byteOffset": 3118788,
      "componentType": 5125,
      "count": 10758,
      "type": "SCALAR"
    }
  ],
  "asset": {
    "extras": {
      "author": "andersm (https://sketchfab.com/andersm)",
      "license": "CC-BY-4.0 (http://creativecommons.org/licenses/by/4.0/)",
      "source": "https://sketchfab.com/3d-models/antarctic-100-431b9bcf71854defb314e8dc8f018991",
      "title": "Antarctic 100"
    },
    "generator": "Sketchfab-12.66.0",
    "version": "2.0"
  },
  "bufferViews": [
    {
      "buffer": 0,
      "byteLength": 3161820,
      "name": "floatBufferViews",
      "target": 34963
    },
    {
      "buffer": 0,
      "byteLength": 2325920,
      "byteOffset": 3161820,
      "byteStride": 8,
      "name": "floatBufferViews",
      "target": 34962
    },
    {
      "buffer": 0,
      "byteLength": 6977760,
      "byteOffset": 5487740,
      "byteStride": 12,
      "name": "floatBufferViews",
      "target": 34962
    }
  ],
  "buffers": [
    {
      "byteLength": 12465500,
      "uri": "scene.bin"
    }
  ],
  "images": [
    {
      "uri": "textures/Material_0_baseColor.png"
    },
    {
      "uri": "textures/Material_1_baseColor.png"
    },
    {
      "uri": "textures/Material_2_baseColor.png"
    },
    {
      "uri": "textures/Material_3_baseColor.png"
    },
    {
      "uri": "textures/Material_4_baseColor.png"
    }
  ],
  "materials": [
    {
      "doubleSided": true,
      "name": "Material_0",
      "pbrMetallicRoughness": {
        "baseColorTexture": {
          "index": 0
        },
        "metallicFactor": 0.0
      }
    },
    {
      "doubleSided": true,
      "name": "Material_1",
      "pbrMetallicRoughness": {
        "baseColorTexture": {
          "index": 1
        },
        "metallicFactor": 0.0
      }
    },
    {
      "doubleSided": true,
      "name": "Material_2",
      "pbrMetallicRoughness": {
        "baseColorTexture": {
          "index": 2
        },
        "metallicFactor": 0.0
      }
    },
    {
      "doubleSided": true,
      "name": "Material_3",
      "pbrMetallicRoughness": {
        "baseColorTexture": {
          "index": 3
        },
        "metallicFactor": 0.0
      }
    },
    {
      "doubleSided": true,
      "name": "Material_4",
      "pbrMetallicRoughness": {
        "baseColorTexture": {
          "index": 4
        },
        "metallicFactor": 0.0
      }
    }
  ],
  "meshes": [
    {
      "name": "Object_0",
      "primitives": [
        {
          "attributes": {
            "NORMAL": 1,
            "POSITION": 0,
            "TEXCOORD_0": 2
          },
          "indices": 3,
          "material": 0,
          "mode": 4
        }
      ]
    },
    {
      "name": "Object_1",
      "primitives": [
        {
          "attributes": {
            "NORMAL": 5,
            "POSITION": 4,
            "TEXCOORD_0": 6
          },
          "indices": 7,
          "material": 1,
          "mode": 4
        }
      ]
    },
    {
      "name": "Object_2",
      "primitives": [
        {
          "attributes": {
            "NORMAL": 9,
            "POSITION": 8,
            "TEXCOORD_0": 10
          },
          "indices": 11,
          "material": 2,
          "mode": 4
        }
      ]
    },
    {
      "name": "Object_3",
      "primitives": [
        {
          "attributes": {
            "NORMAL": 13,
            "POSITION": 12,
            "TEXCOORD_0": 14
          },
          "indices": 15,
          "material": 3,
          "mode": 4
        }
      ]
    },
    {
      "name": "Object_4",
      "primitives": [
        {
          "attributes": {
            "NORMAL": 17,
            "POSITION": 16,
            "TEXCOORD_0": 18
          },
          "indices": 19,
          "material": 3,
          "mode": 4
        }
      ]
    },
    {
      "name": "Object_5",
      "primitives": [
        {
          "attributes": {
            "NORMAL": 21,
            "POSITION": 20,
            "TEXCOORD_0": 22
          },
          "indices": 23,
          "material": 4,
          "mode": 4
        }
      ]
    },
    {
      "name": "Object_6",
      "primitives": [
        {
          "attributes": {
            "NORMAL": 25,
            "POSITION": 24,
            "TEXCOORD_0": 26
          },
          "indices": 27,
          "material": 4,
          "mode": 4
        }
      ]
    }
  ],
  "nodes": [
    {
      "children": [
        1
      ],
      "matrix": [
        1.0,
        0.0,
        0.0,
        0.0,
        0.0,
        -1.0,
        -4.440892098500626e-16,
        0.0,
        0.0,
        4.440892098500626e-16,
        -1.0,
        0.0,
        0.0,
        -0.4434450268745423,
        0.2127576321363448,
        1.0
      ],
      "name": "Sketchfab_model"
    },
    {
      "children": [
        2,
        3,
        4,
        5,
        6,
        7,
        8
      ],
      "name": "texturedMesh.obj.cleaner.materialmerger.gles"
    },
    {
      "mesh": 0,
      "name": "Object_2"
    },
    {
      "mesh": 1,
      "name": "Object_3"
    },
    {
      "mesh": 2,
      "name": "Object_4"
    },
    {
      "mesh": 3,
      "name": "Object_5"
    },
    {
      "mesh": 4,
      "name": "Object_6"
    },
    {
      "mesh": 5,
      "name": "Object_7"
    },
    {
      "mesh": 6,
      "name": "Object_8"
    }
  ],
  "samplers": [
    {
      "magFilter": 9729,
      "minFilter": 9987,
      "wrapS": 10497,
      "wrapT": 10497
    }
  ],
  "scene": 0,
  "scenes": [
    {
      "name": "Sketchfab_Scene",
      "nodes": [
        0
      ]
    }
  ],
  "textures": [
    {
      "sampler": 0,
      "source": 0
    },
    {
      "sampler": 0,
      "source": 1
    },
    {
      "sampler": 0,
      "source": 2
    },
    {
      "sampler": 0,
      "source": 3
    },
    {
      "sampler": 0,
      "source": 4
    }
  ]
}
